<?xml version="1.0" standalone="no"?>
<!DOCTYPE svg PUBLIC "-//W3C//DTD SVG 20010904//EN"
 "http://www.w3.org/TR/2001/REC-SVG-20010904/DTD/svg10.dtd">
<svg version="1.0" xmlns="http://www.w3.org/2000/svg"
 width="700.000000pt" height="700.000000pt" viewBox="0 0 700.000000 700.000000"
 preserveAspectRatio="xMidYMid meet">
<metadata>
Created by potrace 1.14, written by Peter Selinger 2001-2017
</metadata>
<g transform="translate(0.000000,700.000000) scale(0.100000,-0.100000)"
fill="#000000" stroke="none">
<path d="M2993 6953 c-11 -27 -33 -77 -48 -113 -15 -36 -38 -89 -51 -118 -13
-29 -24 -55 -24 -57 0 -2 -12 -30 -27 -62 -15 -32 -27 -60 -28 -63 0 -3 -11
-27 -23 -54 -12 -27 -22 -50 -22 -52 0 -4 -29 -70 -58 -134 -8 -19 -16 -37
-17 -40 -1 -3 -6 -16 -12 -30 -6 -14 -39 -90 -72 -170 -34 -80 -68 -159 -76
-175 -25 -54 -38 -90 -37 -97 1 -5 -3 -8 -9 -8 -5 0 -8 -4 -4 -9 3 -5 1 -12
-5 -16 -5 -3 -10 -15 -10 -26 0 -10 -4 -19 -10 -19 -5 0 -10 -7 -10 -14 0 -8
-16 -49 -35 -92 -19 -42 -35 -83 -35 -90 0 -8 -4 -14 -10 -14 -5 0 -9 -3 -8
-7 1 -5 -4 -21 -10 -36 -7 -16 -12 -33 -12 -38 0 -5 -5 -9 -11 -9 -5 0 -8 -4
-4 -9 3 -5 1 -12 -5 -16 -6 -4 -8 -11 -5 -16 4 -5 1 -9 -4 -9 -6 0 -11 -7 -11
-15 0 -8 -4 -23 -9 -33 -14 -25 -24 -56 -23 -64 1 -5 -2 -8 -7 -8 -7 0 -25
-48 -21 -58 0 -1 -6 -10 -15 -18 -8 -9 -15 -21 -15 -28 0 -7 -14 -43 -30 -80
-30 -66 -43 -77 -103 -91 -21 -4 -70 -19 -222 -65 -38 -12 -74 -22 -80 -23 -5
-2 -16 -6 -23 -11 -7 -4 -16 -6 -19 -3 -2 3 -25 -3 -49 -13 -24 -11 -45 -19
-47 -19 -4 2 -91 -22 -152 -41 -111 -34 -240 -73 -240 -72 0 1 -22 -5 -50 -14
-68 -21 -246 -74 -265 -79 -8 -2 -27 -8 -42 -14 -16 -6 -28 -8 -28 -5 0 4 -6
1 -14 -5 -8 -6 -18 -11 -22 -9 -5 1 -19 -3 -31 -10 -13 -7 -23 -11 -23 -8 0 3
-26 -4 -57 -15 -32 -11 -60 -20 -63 -21 -6 -1 -1 1 -100 -28 -41 -12 -82 -24
-90 -26 -8 -1 -72 -21 -142 -42 -71 -22 -128 -38 -128 -35 0 2 -9 -1 -21 -7
-11 -6 -30 -14 -42 -16 -30 -7 -36 -9 -85 -24 l-42 -13 0 -420 0 -420 24 -21
c80 -71 175 -157 216 -196 27 -25 74 -68 107 -96 32 -28 81 -72 108 -98 28
-25 54 -46 58 -46 5 0 5 -4 2 -10 -3 -5 -1 -10 5 -10 6 0 17 -6 24 -12 7 -7
57 -53 111 -103 54 -49 112 -102 128 -117 16 -15 61 -56 100 -90 39 -35 92
-84 119 -110 27 -27 53 -48 58 -48 5 0 13 -6 17 -14 4 -8 53 -54 108 -102 55
-49 119 -108 141 -132 39 -40 41 -44 34 -85 -5 -23 -11 -60 -14 -82 -3 -22 -8
-51 -11 -65 -5 -25 -13 -80 -20 -130 -2 -14 -4 -27 -5 -30 -1 -3 -2 -8 -1 -13
1 -4 -3 -26 -8 -50 -5 -23 -12 -64 -15 -92 -3 -27 -8 -61 -11 -75 -2 -13 -7
-40 -10 -60 -3 -20 -7 -45 -9 -55 -2 -11 -7 -42 -10 -70 -8 -55 -16 -108 -21
-135 -2 -10 -6 -40 -10 -67 -4 -26 -9 -59 -11 -73 -3 -14 -9 -54 -15 -90 -5
-36 -12 -78 -15 -95 -3 -16 -7 -48 -10 -70 -2 -22 -6 -51 -9 -65 -7 -29 -14
-72 -19 -115 -4 -27 -8 -55 -21 -131 -2 -12 -7 -48 -11 -80 -9 -63 -10 -73
-14 -76 -1 -2 -3 -14 -5 -28 -1 -14 -6 -50 -10 -80 -4 -30 -9 -64 -11 -75 -1
-11 -3 -20 -4 -20 -1 0 -3 -11 -5 -25 -8 -66 -16 -120 -21 -141 -2 -13 -7 -44
-10 -68 -2 -24 -7 -47 -10 -52 -3 -5 288 -9 669 -9 l675 0 53 36 c30 20 60 43
67 52 6 9 12 13 12 9 0 -5 83 52 145 100 6 5 43 30 83 57 39 27 72 53 72 57 0
4 14 12 30 18 17 5 30 15 30 20 0 6 5 11 10 11 10 0 22 8 55 38 8 7 15 11 15
8 0 -3 8 1 18 10 9 9 71 54 137 101 66 46 131 94 145 106 14 12 26 19 27 17 1
-3 12 4 25 15 13 11 26 21 31 23 8 2 26 16 58 45 10 9 22 17 25 17 3 0 27 15
52 33 45 31 54 38 86 64 7 6 17 9 20 6 3 -4 6 -1 6 5 0 17 31 15 81 -7 70 -29
84 -34 92 -33 4 1 7 -3 7 -8 0 -6 7 -10 15 -10 8 0 23 -4 33 -10 9 -5 33 -16
52 -24 19 -8 56 -23 82 -34 25 -11 49 -18 52 -14 3 3 6 0 6 -6 0 -7 9 -12 20
-12 11 0 20 -4 20 -10 0 -5 3 -9 8 -8 8 1 19 -3 125 -48 43 -19 85 -34 92 -34
8 0 15 -4 15 -10 0 -5 8 -10 18 -10 10 0 22 -4 28 -8 5 -5 56 -28 114 -51 58
-24 119 -49 135 -56 17 -7 75 -32 130 -55 55 -24 124 -53 153 -66 29 -13 55
-24 57 -24 3 0 24 -9 48 -19 23 -11 71 -32 107 -46 36 -15 85 -36 109 -47 24
-11 53 -21 65 -24 11 -2 22 -8 24 -14 2 -5 11 -10 21 -10 9 0 25 -6 36 -14 11
-7 22 -14 25 -14 7 -1 59 -21 95 -37 16 -7 69 -29 117 -49 l86 -36 224 2 c141
2 222 7 221 13 0 6 -4 35 -8 65 -4 30 -8 57 -10 60 -2 3 -6 25 -9 50 -3 25 -8
56 -11 70 -3 14 -7 39 -9 55 -11 74 -17 112 -23 135 -3 14 -7 39 -8 55 -1 17
-7 57 -13 90 -15 77 -24 134 -25 163 -1 12 -3 22 -6 22 -4 0 -6 10 -7 23 -1
33 -16 141 -20 148 -2 4 -6 24 -9 45 -3 22 -10 69 -16 106 -6 37 -12 78 -14
90 -8 51 -16 94 -21 118 -3 14 -8 45 -11 70 -9 82 -11 95 -13 95 -2 0 -8 33
-15 80 -8 66 -15 107 -25 158 -6 26 -9 51 -9 55 1 4 0 10 -1 15 -5 15 -7 24
-14 82 -5 33 -10 69 -13 80 -2 11 -6 36 -9 55 -2 19 -6 44 -8 55 -4 19 -10 56
-21 120 -3 17 -7 46 -10 65 -5 35 -10 68 -20 127 -3 18 -7 45 -9 60 -3 16 -7
37 -9 48 -4 17 -12 73 -23 150 -1 11 -5 35 -8 53 -15 84 -16 96 -9 101 5 3 38
42 73 86 36 44 72 87 80 96 17 18 38 42 95 114 22 27 47 56 55 65 32 34 70 84
70 93 0 4 5 5 10 2 6 -3 10 -2 10 3 0 5 9 20 21 33 11 13 33 39 47 58 42 52
60 74 85 101 13 14 41 48 62 75 21 28 44 55 50 60 6 6 78 91 160 190 82 99
158 191 170 204 11 12 27 31 35 40 8 10 35 42 60 72 24 30 48 56 52 57 5 2 8
8 8 13 0 5 8 18 18 28 55 61 81 91 115 135 20 27 37 45 37 41 0 -4 11 9 25 29
l25 37 0 449 0 450 -42 1 c-24 0 -151 3 -283 5 -132 2 -273 5 -313 7 -39 1
-72 -2 -72 -6 0 -5 -5 -5 -12 -1 -7 4 -104 9 -218 10 -113 1 -371 5 -575 9
-203 3 -439 7 -523 8 l-154 2 -89 185 c-49 102 -93 192 -98 200 -21 39 -34 64
-93 185 -34 71 -63 132 -64 135 -1 13 -80 165 -86 168 -5 2 -8 9 -8 15 0 6
-34 79 -75 164 -41 84 -75 156 -75 160 0 3 -7 14 -15 23 -9 10 -17 26 -20 36
-2 11 -45 101 -94 202 l-91 182 -493 0 -493 0 -21 -47z"/>
</g>
</svg>
