<?xml version="1.0" standalone="no"?>
<!DOCTYPE svg PUBLIC "-//W3C//DTD SVG 20010904//EN"
 "http://www.w3.org/TR/2001/REC-SVG-20010904/DTD/svg10.dtd">
<svg version="1.0" xmlns="http://www.w3.org/2000/svg"
 width="239.000000pt" height="239.000000pt" viewBox="0 0 239.000000 239.000000"
 preserveAspectRatio="xMidYMid meet">
<metadata>
Created by potrace 1.14, written by Peter Selinger 2001-2017
</metadata>
<g transform="translate(0.000000,239.000000) scale(0.100000,-0.100000)"
fill="#000000" stroke="none">
<path d="M1170 2381 c0 -7 -4 -9 -10 -6 -5 3 -10 0 -10 -7 0 -9 -3 -9 -10 2
-7 11 -10 11 -10 2 0 -7 -4 -11 -9 -7 -5 3 -16 -2 -25 -10 -8 -9 -19 -14 -23
-13 -4 2 -12 -7 -18 -20 -5 -12 -15 -20 -21 -18 -13 5 -12 -42 1 -52 13 -9 17
-32 6 -32 -5 0 -16 15 -25 33 -12 25 -16 28 -17 12 -2 -26 -2 -27 7 -50 7 -17
5 -18 -8 -8 -13 11 -15 9 -14 -13 1 -14 6 -28 11 -32 14 -10 17 -32 5 -32 -6
0 -10 -7 -10 -15 0 -8 5 -15 11 -15 5 0 7 -4 4 -10 -4 -6 1 -7 12 -3 15 6 16
4 6 -8 -10 -12 -8 -15 8 -16 10 -1 19 4 19 10 0 7 4 6 10 -3 15 -23 12 -28
-15 -25 -21 2 -23 0 -13 -12 9 -11 13 -11 19 -1 7 10 9 10 10 -2 1 -8 1 -18 0
-22 0 -4 7 -4 16 -1 11 4 14 3 9 -5 -5 -8 -1 -10 10 -5 13 5 15 3 9 -8 -4 -8
-5 -11 0 -7 4 4 14 3 22 -3 7 -6 13 -8 13 -4 0 4 6 2 13 -4 10 -8 14 -7 14 4
0 8 -4 12 -9 9 -4 -3 -8 0 -8 6 0 15 35 8 36 -8 1 -6 2 -15 3 -19 0 -3 11 2
23 13 19 17 21 17 15 1 -6 -15 -4 -16 14 -7 11 6 17 15 14 21 -4 5 -2 9 4 9 5
0 12 -6 14 -12 4 -10 6 -10 6 0 1 7 6 10 13 6 7 -5 8 -3 3 6 -6 10 -4 12 7 7
15 -5 63 37 63 56 0 4 6 12 14 16 9 6 10 11 2 15 -6 4 -8 12 -5 18 4 6 10 5
16 -3 7 -10 8 -8 3 8 -3 12 -1 24 5 28 6 3 7 12 3 18 -4 7 -8 21 -9 32 -4 48
-14 77 -39 110 -15 19 -30 35 -32 35 -3 0 0 -6 6 -13 6 -8 8 -17 4 -20 -11
-11 -20 -8 -21 8 -1 8 -3 22 -4 30 -1 8 -4 12 -8 10 -4 -2 -16 2 -26 10 -10 8
-26 14 -34 15 -11 0 -12 -2 -3 -8 9 -5 6 -11 -9 -21 -18 -11 -20 -11 -15 1 3
8 1 21 -4 29 -7 12 -9 12 -9 0 0 -11 -3 -11 -15 -1 -11 9 -15 9 -15 1z m29
-27 c-15 -19 12 -23 38 -7 28 18 66 2 56 -24 -4 -11 -3 -14 6 -9 6 4 11 4 10
-1 -1 -4 -1 -14 0 -22 1 -11 4 -11 17 0 14 11 19 10 34 -9 12 -14 17 -34 15
-53 -2 -16 -1 -27 4 -25 4 3 8 -1 8 -9 0 -17 0 -17 -21 -9 -9 3 -13 11 -9 17
4 6 1 7 -7 2 -10 -6 -12 -4 -7 9 4 10 7 21 7 24 0 4 5 0 10 -8 7 -11 9 -10 7
9 l-1 23 -18 -22 c-10 -12 -18 -16 -18 -9 0 7 8 22 18 33 16 20 16 20 0 7 -12
-9 -18 -10 -18 -2 0 15 -22 10 -37 -9 -12 -13 -15 -13 -27 3 -8 10 -18 18 -23
18 -4 1 -10 3 -13 6 -3 4 1 3 8 -1 6 -4 12 -3 12 3 0 5 11 8 25 6 24 -2 25 -1
10 15 -13 14 -13 19 -3 23 9 4 9 6 1 6 -6 1 -15 -3 -18 -9 -3 -5 -11 -10 -17
-10 -6 0 -5 7 3 18 8 10 4 9 -11 -5 -22 -18 -27 -19 -38 -7 -8 9 -22 12 -34 8
-15 -4 -18 -3 -13 6 6 9 3 9 -12 1 -11 -6 -23 -8 -26 -5 -3 3 -11 3 -17 -1 -9
-6 -9 -10 1 -16 8 -4 19 -3 26 3 18 15 16 3 -3 -16 -18 -18 -39 -22 -28 -4 4
6 3 8 -4 4 -5 -3 -12 -1 -14 6 -3 7 -7 5 -11 -6 -4 -9 -3 -15 2 -11 5 3 12 1
16 -5 5 -9 -9 -15 -18 -7 -2 1 -11 -4 -19 -10 -12 -10 -15 -10 -15 2 0 8 4 12
8 10 3 -3 12 9 19 25 7 16 16 28 20 25 4 -3 13 2 20 9 6 8 19 13 29 11 10 -2
24 1 31 5 21 13 51 8 39 -6z m29 -45 c2 6 8 8 13 5 6 -3 4 -11 -5 -17 -18 -14
-11 -26 23 -45 17 -10 26 -11 34 -3 6 6 18 11 26 11 10 0 7 -6 -9 -17 -31 -22
-42 -23 -57 -3 -7 8 -13 12 -13 8 0 -4 -10 3 -23 15 -14 14 -18 25 -12 29 6 5
3 8 -7 8 -10 0 -18 6 -18 13 0 9 -3 8 -9 -2 -5 -8 -14 -10 -22 -6 -9 6 -8 10
7 16 11 4 29 1 43 -9 18 -11 26 -12 29 -3z m-54 -21 c-2 -4 5 -9 16 -13 11 -3
25 -15 31 -26 5 -11 14 -17 18 -14 5 3 11 -1 14 -9 7 -17 29 -15 51 3 16 13
21 7 18 -20 -1 -3 17 -16 38 -28 39 -22 39 -23 24 -47 -9 -13 -19 -22 -22 -19
-3 2 -12 -1 -20 -8 -13 -10 -15 -9 -9 6 4 11 1 20 -8 23 -8 4 -12 10 -9 15 3
5 12 2 20 -6 19 -19 28 -19 43 -2 8 11 5 16 -15 26 -18 8 -23 8 -18 0 4 -7 1
-10 -7 -7 -8 3 -15 10 -15 16 -1 7 -3 15 -4 20 -1 4 -2 11 -1 15 2 10 -42 -13
-51 -27 -5 -7 -8 -7 -8 2 0 7 -4 11 -9 7 -5 -3 -13 0 -17 6 -4 8 -3 9 4 5 7
-4 12 -2 12 4 0 7 -6 10 -12 7 -7 -2 -11 -13 -10 -23 3 -16 1 -17 -10 -6 -7 7
-13 25 -14 40 0 20 -5 26 -18 24 -11 -2 -15 1 -11 7 4 7 0 8 -11 4 -11 -4 -15
-3 -10 5 12 19 -14 24 -39 8 -14 -9 -25 -13 -25 -8 0 5 10 14 23 19 24 11 68
12 61 1z m-25 -15 c-4 -23 4 -31 26 -28 21 2 23 0 13 -12 -9 -11 -13 -11 -19
-1 -7 10 -9 10 -9 -2 -1 -9 -6 -6 -14 9 -11 20 -14 21 -19 7 -4 -10 -3 -15 3
-11 12 7 12 3 4 -19 -3 -9 -10 -16 -16 -16 -5 0 -6 5 -3 10 3 6 2 10 -3 10
-15 0 -8 40 8 50 18 12 30 13 29 3z m-59 -23 c4 -7 7 -21 5 -31 -4 -18 20 -33
35 -24 5 3 12 0 16 -6 4 -8 3 -9 -4 -5 -8 5 -10 1 -5 -11 5 -14 3 -16 -7 -6
-7 6 -19 9 -28 6 -10 -4 -13 -2 -8 5 4 7 2 10 -7 6 -8 -3 -14 2 -14 11 0 8 5
15 10 15 6 0 8 3 5 6 -4 3 -17 0 -30 -7 -12 -7 -27 -12 -31 -11 -5 1 -5 -3 -1
-9 4 -8 3 -9 -4 -5 -13 8 -17 -6 -5 -17 3 -4 12 2 20 13 8 11 19 20 24 20 6 0
1 -13 -11 -30 -19 -27 -50 -45 -35 -20 3 6 0 13 -8 16 -7 2 -14 11 -14 19 0 8
4 12 8 9 14 -8 20 16 9 38 l-11 23 18 -23 c18 -22 53 -23 53 0 0 5 -4 7 -8 4
-4 -2 -8 4 -9 14 -2 21 24 21 37 0z m105 -40 c-3 -4 2 -13 10 -20 8 -7 15 -18
15 -24 0 -6 -7 -2 -15 8 -18 24 -42 29 -42 10 0 -10 4 -11 14 -3 8 7 13 8 13
1 0 -5 -7 -15 -15 -22 -8 -7 -15 -9 -15 -6 0 4 -6 4 -12 -1 -20 -12 -58 -11
-58 1 0 6 -4 5 -9 -2 -6 -11 -10 -9 -14 7 -4 18 -2 19 14 10 11 -5 24 -7 29
-4 5 3 12 0 16 -6 11 -19 35 20 25 40 -8 13 -4 17 20 17 16 1 27 -2 24 -6z
m120 -31 c1 -8 -3 -17 -8 -20 -11 -8 3 -40 16 -32 6 3 7 1 3 -6 -4 -6 -12 -9
-17 -6 -5 4 -9 0 -9 -7 0 -7 -11 4 -26 25 -14 21 -29 35 -35 32 -5 -4 -3 -15
6 -28 19 -27 19 -34 0 -34 -9 0 -14 6 -11 14 4 9 1 11 -6 7 -7 -5 -9 -2 -6 7
4 11 -1 15 -17 15 -13 0 -21 -4 -19 -8 3 -5 10 -6 15 -3 5 4 9 2 9 -4 0 -19
-19 -21 -29 -4 -6 11 -11 13 -11 5 0 -7 -4 -11 -9 -7 -5 3 -13 0 -17 -6 -4 -8
-9 -7 -15 2 -7 11 -9 11 -9 1 0 -7 -4 -10 -10 -7 -17 11 -11 24 10 20 11 -2
22 1 25 6 4 5 10 7 15 4 4 -3 13 2 20 10 10 12 16 12 26 4 11 -9 15 -7 20 6 4
10 14 15 25 12 10 -3 24 2 30 9 14 17 34 13 34 -7z m-235 -44 c0 5 7 0 15 -12
8 -12 23 -20 32 -18 10 2 18 4 18 5 0 7 36 6 41 -1 3 -6 12 -5 22 3 12 10 14
10 8 1 -6 -12 5 -18 27 -14 17 3 5 -19 -23 -39 -16 -12 -30 -17 -30 -11 0 5 9
16 20 24 18 13 19 15 5 21 -9 3 -14 2 -11 -3 3 -5 -2 -15 -11 -22 -15 -12 -16
-12 -10 4 9 23 -2 44 -13 26 -5 -7 -18 -14 -30 -16 -13 -2 -19 1 -15 8 4 6 -2
5 -14 -2 -18 -12 -19 -15 -5 -30 9 -10 22 -15 30 -12 10 4 12 0 8 -11 -7 -18
-24 -17 -40 3 -9 11 -11 11 -11 -3 0 -15 5 -18 23 -15 4 0 10 -5 14 -11 5 -9
10 -6 15 9 7 23 22 29 21 9 0 -15 -36 -53 -36 -39 0 5 -13 14 -30 21 -31 13
-37 24 -20 35 6 3 10 11 10 16 0 6 -4 8 -9 5 -5 -3 -12 1 -15 10 -5 14 -9 14
-23 3 -10 -9 -14 -9 -10 -2 5 7 -1 17 -14 24 -22 11 -22 11 7 34 26 21 30 21
41 6 7 -9 13 -12 13 -6z m290 15 c0 -5 -4 -10 -10 -10 -5 0 -10 5 -10 10 0 6
5 10 10 10 6 0 10 -4 10 -10z m-60 -52 c11 2 20 -2 20 -7 0 -6 -6 -10 -12 -8
-7 1 -12 -4 -10 -11 3 -14 -29 -13 -39 2 -4 5 -10 -1 -14 -13 -3 -12 -11 -19
-16 -16 -5 4 1 19 12 35 12 15 18 34 14 42 -3 7 1 4 10 -7 9 -11 25 -19 35
-17z m52 -21 c-7 -8 -8 -18 -4 -22 4 -5 2 -5 -4 -2 -6 4 -17 -6 -23 -21 l-13
-26 -17 23 -18 23 1 -23 c1 -17 -4 -24 -19 -24 -12 0 -19 -6 -17 -15 3 -12 1
-12 -9 -3 -10 10 -17 9 -33 -5 -11 -9 -16 -12 -13 -5 4 6 3 14 -3 18 -6 4 -8
11 -5 16 4 5 1 9 -4 9 -6 0 -10 3 -10 8 4 22 -4 29 -28 28 -14 0 -27 5 -29 12
-1 7 0 8 3 2 3 -8 9 -7 19 1 11 9 14 8 14 -2 0 -8 6 -6 16 7 8 10 13 13 9 7
-9 -19 14 -58 27 -45 8 8 17 8 30 1 10 -5 18 -6 18 -2 0 4 7 -2 15 -13 14 -18
15 -18 6 7 -9 24 -7 26 17 25 18 -1 26 4 24 12 -1 8 2 11 7 7 6 -3 15 4 21 16
9 15 15 18 23 10 7 -7 7 -14 -1 -24z"/>
<path d="M1270 2270 c0 -5 5 -10 10 -10 6 0 10 5 10 10 0 6 -4 10 -10 10 -5 0
-10 -4 -10 -10z"/>
<path d="M1210 2230 c0 -5 5 -10 11 -10 5 0 7 5 4 10 -3 6 -8 10 -11 10 -2 0
-4 -4 -4 -10z"/>
<path d="M1276 2172 c-3 -5 1 -17 8 -27 12 -17 13 -17 11 3 -2 26 -11 37 -19
24z"/>
<path d="M1030 2125 c-8 -10 -8 -15 1 -20 6 -4 15 -2 19 5 6 9 10 7 15 -9 6
-21 20 -27 29 -13 6 11 -4 24 -31 39 -17 10 -24 9 -33 -2z"/>
<path d="M1270 2090 c0 -5 5 -10 11 -10 5 0 7 5 4 10 -3 6 -8 10 -11 10 -2 0
-4 -4 -4 -10z"/>
<path d="M1324 2058 l-19 -23 23 19 c21 18 27 26 19 26 -2 0 -12 -10 -23 -22z"/>
<path d="M1205 2030 c-3 -5 -3 -10 2 -10 4 0 2 -4 -6 -9 -7 -5 -9 -11 -4 -14
5 -3 14 3 21 13 7 11 8 21 2 25 -5 3 -11 1 -15 -5z"/>
<path d="M1144 1718 c-2 -3 -13 -4 -24 -1 -11 3 -20 1 -20 -4 0 -5 -10 -10
-22 -10 -13 -1 -24 -7 -26 -13 -2 -5 -9 -7 -15 -3 -6 4 -8 0 -4 -10 4 -11 2
-14 -8 -10 -18 6 -119 -93 -110 -107 4 -6 1 -10 -5 -10 -7 0 -10 -6 -7 -14 3
-8 1 -16 -4 -18 -21 -7 -29 -118 -15 -191 5 -30 11 -37 23 -33 12 5 13 3 5 -7
-9 -10 -5 -23 15 -53 14 -21 28 -41 29 -43 2 -2 12 2 21 10 15 11 16 11 6 -1
-15 -17 -17 -34 -3 -25 6 3 10 -2 10 -11 0 -10 3 -15 6 -11 3 3 16 -3 28 -14
11 -11 29 -18 38 -15 10 2 16 0 13 -5 -9 -14 55 -26 125 -24 91 4 92 4 85 15
-3 5 0 7 8 4 18 -7 103 41 99 56 -1 6 1 9 6 6 11 -7 44 32 37 44 -4 6 2 7 12
3 10 -3 15 -3 11 2 -4 4 0 14 8 22 8 9 13 22 10 30 -3 8 -1 11 4 8 6 -3 11 -3
11 2 1 4 3 17 6 28 14 68 14 141 -2 191 -15 49 -35 72 -35 42 0 -6 -3 -8 -6
-5 -4 4 -2 12 4 19 12 16 -21 63 -38 53 -5 -3 -7 0 -5 7 11 29 -117 98 -173
94 -17 -1 -29 1 -26 5 2 5 -12 7 -32 6 -20 -1 -38 -5 -40 -9z m141 -17 c3 -5
2 -12 -3 -15 -5 -3 -9 1 -9 9 0 17 3 19 12 6z m-40 -19 c-3 -3 -11 0 -18 7 -9
10 -8 11 6 5 10 -3 15 -9 12 -12z m75 -8 c0 -8 -19 -13 -24 -6 -3 5 1 9 9 9 8
0 15 -2 15 -3z m-195 -13 c3 -5 2 -12 -3 -15 -5 -3 -9 1 -9 9 0 17 3 19 12 6z
m-62 -26 c-3 -9 -8 -14 -10 -11 -3 3 -2 9 2 15 9 16 15 13 8 -4z m184 -30 c0
-8 -4 -12 -9 -9 -5 3 -6 10 -3 15 9 13 12 11 12 -6z m79 -11 c1 -9 0 -13 -4
-10 -3 4 -7 14 -8 22 -1 9 0 13 4 10 3 -4 7 -14 8 -22z m-236 12 c0 -2 -6 -9
-14 -15 -11 -9 -16 -9 -22 0 -4 7 -3 9 4 5 6 -3 13 -2 17 4 6 10 15 14 15 6z
m204 -14 c3 -5 -1 -9 -9 -9 -8 0 -15 4 -15 9 0 4 4 8 9 8 6 0 12 -4 15 -8z
m151 -10 c-3 -3 -11 0 -18 7 -9 10 -8 11 6 5 10 -3 15 -9 12 -12z m-195 -6 c0
-2 -7 -7 -16 -10 -8 -3 -12 -2 -9 4 6 10 25 14 25 6z m-284 -31 c-1 -13 -4
-27 -7 -30 -5 -4 -4 41 0 53 4 10 8 -2 7 -23z m239 6 c3 -5 2 -12 -3 -15 -5
-3 -9 1 -9 9 0 17 3 19 12 6z m179 1 c3 -5 -1 -9 -9 -9 -8 0 -12 4 -9 9 3 4 7
8 9 8 2 0 6 -4 9 -8z m-242 -37 c3 0 9 -3 13 -7 4 -3 0 -5 -9 -4 -9 1 -22 8
-29 16 -10 10 -9 11 3 4 8 -5 18 -9 22 -9z m321 0 c-3 -9 -8 -14 -10 -11 -3 3
-2 9 2 15 9 16 15 13 8 -4z m-378 -14 c3 -5 2 -12 -3 -15 -5 -3 -9 1 -9 9 0
17 3 19 12 6z m59 -37 c3 -8 2 -12 -4 -9 -6 3 -10 10 -10 16 0 14 7 11 14 -7z
m246 12 c0 -3 -4 -8 -10 -11 -5 -3 -10 -1 -10 4 0 6 5 11 10 11 6 0 10 -2 10
-4z m-3 -41 c0 -8 -4 -12 -9 -9 -5 3 -6 10 -3 15 9 13 12 11 12 -6z m-277 1
c0 -2 -7 -7 -16 -10 -8 -3 -12 -2 -9 4 6 10 25 14 25 6z m246 -8 c3 -4 -1 -5
-10 -4 -8 1 -18 5 -22 8 -3 4 1 5 10 4 8 -1 18 -5 22 -8z m-141 -18 c3 -6 -1
-7 -9 -4 -18 7 -21 14 -7 14 6 0 13 -4 16 -10z m-10 -19 c3 -5 2 -12 -3 -15
-5 -3 -9 1 -9 9 0 17 3 19 12 6z m130 -21 c-3 -5 -12 -10 -18 -10 -7 0 -6 4 3
10 19 12 23 12 15 0z m-172 -30 c10 -12 9 -12 -4 -2 -9 6 -18 9 -21 6 -3 -3
-9 -1 -12 4 -9 15 22 8 37 -8z m284 -5 c0 -8 -4 -12 -9 -9 -5 3 -6 10 -3 15 9
13 12 11 12 -6z m-419 -30 c-3 -3 -9 2 -12 12 -6 14 -5 15 5 6 7 -7 10 -15 7
-18z m86 7 c3 -5 -1 -9 -9 -9 -8 0 -12 4 -9 9 3 4 7 8 9 8 2 0 6 -4 9 -8z m30
-8 c3 -8 2 -12 -4 -9 -6 3 -10 10 -10 16 0 14 7 11 14 -7z m143 -19 c0 -8 -4
-12 -9 -9 -5 3 -6 10 -3 15 9 13 12 11 12 -6z m38 6 c3 -5 2 -12 -3 -15 -5 -3
-9 1 -9 9 0 17 3 19 12 6z m-191 -20 c-8 -8 -34 -10 -38 -2 -3 4 6 7 19 7 14
0 22 -2 19 -5z m60 -39 c3 -5 -1 -9 -9 -9 -8 0 -12 4 -9 9 3 4 7 8 9 8 2 0 6
-4 9 -8z m141 -22 c-3 -5 -12 -10 -18 -10 -7 0 -6 4 3 10 19 12 23 12 15 0z
m-45 -16 c0 -8 -19 -13 -24 -6 -3 5 1 9 9 9 8 0 15 -2 15 -3z m-155 -24 c-3
-5 -12 -10 -18 -10 -7 0 -6 4 3 10 19 12 23 12 15 0z m50 -49 c3 -5 2 -12 -3
-15 -5 -3 -9 1 -9 9 0 17 3 19 12 6z"/>
<path d="M1091 843 c-265 -67 -402 -365 -279 -608 130 -256 478 -311 682 -108
189 190 160 503 -62 655 -93 64 -232 89 -341 61z"/>
</g>
</svg>
